<svg width="33" height="33" viewBox="0 0 33 33" fill="none" xmlns="http://www.w3.org/2000/svg">
<g id="arrow">
<path id="Icon" fill-rule="evenodd" clip-rule="evenodd" d="M28.2944 17.7065H3.72294C3.09175 17.7065 2.58008 17.1953 2.58008 16.5647C2.58008 15.9342 3.09175 15.423 3.72294 15.423H26.7744L19.9172 9.42886C19.609 9.15964 19.4679 8.74657 19.5471 8.34526C19.6264 7.94394 19.9139 7.61534 20.3014 7.48324C20.6889 7.35114 21.1175 7.43561 21.4258 7.70483L29.4258 14.6923C29.9663 15.1636 30.1558 15.9213 29.9009 16.5912C29.6459 17.2611 29.0003 17.7016 28.2829 17.6951L28.2944 17.7065ZM21.4271 25.4245L25.9985 21.4284C26.475 21.0123 26.5236 20.2889 26.1071 19.8129C25.6905 19.3368 24.9665 19.2882 24.4899 19.7044L19.9185 23.7005C19.4419 24.1167 19.3933 24.84 19.8099 25.316C20.2265 25.7921 20.9505 25.8407 21.4271 25.4245Z" fill="white"/>
</g>
</svg>
